<svg viewBox="0 0 360 46" xmlns="http://www.w3.org/2000/svg">
<path fill="white" d="M3.21651 45C2.36318 45 1.74451 44.808 1.36051 44.424C1.01918 44.04 0.84851 43.464 0.84851 42.696V3.848C0.84851 3.03733 1.01918 2.44 1.36051 2.056C1.74451 1.672 2.36318 1.48 3.21651 1.48H19.9205C24.8698 1.48 28.6245 2.632 31.1845 4.936C33.7872 7.24 35.0885 10.6533 35.0885 15.176C35.0885 18.1627 34.3845 20.7227 32.9765 22.856C31.5685 24.9467 29.5205 26.5253 26.8325 27.592L33.9365 43.336C34.0645 43.592 34.1285 43.8267 34.1285 44.04C34.1285 44.68 33.7445 45 32.9765 45H27.7285C27.1738 45 26.7685 44.936 26.5125 44.808C26.2565 44.6373 26.0218 44.3173 25.8085 43.848L19.3445 28.68H9.04051V42.696C9.04051 43.464 8.84851 44.04 8.46451 44.424C8.12318 44.808 7.50451 45 6.60851 45H3.21651ZM18.2565 22.536C21.2432 22.536 23.4405 21.96 24.8485 20.808C26.2565 19.656 26.9605 17.7787 26.9605 15.176C26.9605 12.616 26.3205 10.7387 25.0405 9.544C23.7605 8.34933 21.8192 7.752 19.2165 7.752H9.04051V22.536H18.2565ZM98.3725 45.96C91.3752 45.96 86.0845 44.0187 82.5005 40.136C78.9592 36.2107 77.1885 30.5787 77.1885 23.24C77.1885 15.9013 78.9592 10.2907 82.5005 6.408C86.0845 2.48266 91.3752 0.519997 98.3725 0.519997C105.327 0.519997 110.597 2.48266 114.181 6.408C117.765 10.3333 119.557 15.944 119.557 23.24C119.557 30.536 117.765 36.1467 114.181 40.072C110.597 43.9973 105.327 45.96 98.3725 45.96ZM105.605 8.52C103.77 7.24 101.359 6.6 98.3725 6.6C93.9352 6.6 90.6285 7.98667 88.4525 10.76C86.3192 13.5333 85.2525 17.6933 85.2525 23.24C85.2525 27.6347 86.1485 31.0267 87.9405 33.416L105.605 8.52ZM98.3725 39.944C102.81 39.944 106.095 38.5573 108.229 35.784C110.362 33.0107 111.429 28.8293 111.429 23.24C111.429 18.9307 110.575 15.56 108.869 13.128L91.1405 38.152C93.0605 39.3467 95.4712 39.944 98.3725 39.944ZM184.468 45.96C177.214 45.96 171.604 43.9973 167.635 40.072C163.668 36.1467 161.684 30.536 161.684 23.24C161.684 15.9867 163.668 10.3973 167.635 6.472C171.646 2.504 177.257 0.519997 184.468 0.519997C187.369 0.519997 190.078 0.818663 192.596 1.416C195.113 2.01333 197.204 2.86666 198.868 3.976C199.252 4.232 199.444 4.50933 199.444 4.808C199.444 5.02133 199.358 5.27733 199.188 5.576L197.332 8.776C197.076 9.16 196.82 9.352 196.564 9.352C196.436 9.352 196.158 9.24533 195.732 9.032C192.83 7.41066 189.374 6.6 185.364 6.6C180.5 6.6 176.681 7.98667 173.908 10.76C171.134 13.4907 169.748 17.6507 169.748 23.24C169.748 28.872 171.092 33.0533 173.78 35.784C176.468 38.5147 180.158 39.88 184.852 39.88C186.558 39.88 188.222 39.752 189.844 39.496C191.465 39.1973 192.788 38.792 193.812 38.28V26.44H185.364C184.51 26.44 183.913 26.2693 183.572 25.928C183.23 25.544 183.06 24.9467 183.06 24.136V22.472C183.06 21.6613 183.23 21.1067 183.572 20.808C183.913 20.4667 184.51 20.296 185.364 20.296H198.868C199.806 20.296 200.468 20.5307 200.852 21C201.278 21.4267 201.492 22.1093 201.492 23.048V39.944C201.492 40.584 201.428 41.0747 201.3 41.416C201.172 41.7147 200.894 41.992 200.468 42.248C196.542 44.7227 191.209 45.96 184.468 45.96ZM264.032 45.96C260.192 45.96 256.8 45.32 253.856 44.04C250.912 42.7173 248.629 40.8187 247.008 38.344C245.387 35.8693 244.576 32.968 244.576 29.64V3.848C244.576 3.03733 244.747 2.44 245.088 2.056C245.472 1.672 246.091 1.48 246.944 1.48H250.336C251.189 1.48 251.808 1.672 252.192 2.056C252.576 2.44 252.768 3.03733 252.768 3.848V29.832C252.768 33.16 253.728 35.6773 255.648 37.384C257.611 39.0907 260.405 39.944 264.032 39.944C267.616 39.944 270.368 39.0907 272.288 37.384C274.251 35.6773 275.232 33.16 275.232 29.832V3.848C275.232 3.03733 275.424 2.44 275.808 2.056C276.192 1.672 276.811 1.48 277.664 1.48H280.992C282.656 1.48 283.488 2.26933 283.488 3.848V29.64C283.488 32.968 282.656 35.8693 280.992 38.344C279.371 40.776 277.088 42.6533 274.144 43.976C271.2 45.2987 267.829 45.96 264.032 45.96ZM330.196 45C329.343 45 328.724 44.808 328.34 44.424C327.999 44.04 327.828 43.464 327.828 42.696V3.848C327.828 3.03733 327.999 2.44 328.34 2.056C328.724 1.672 329.343 1.48 330.196 1.48H356.82C357.674 1.48 358.25 1.65067 358.548 1.992C358.89 2.33333 359.06 2.90933 359.06 3.72V5.448C359.06 6.25866 358.89 6.856 358.548 7.24C358.25 7.58133 357.674 7.752 356.82 7.752H336.02V20.168H351.124C351.978 20.168 352.575 20.3387 352.916 20.68C353.258 21.0213 353.428 21.5973 353.428 22.408V24.008C353.428 24.8187 353.258 25.416 352.916 25.8C352.575 26.1413 351.978 26.312 351.124 26.312H336.02V38.792H356.756C357.61 38.792 358.207 38.984 358.548 39.368C358.89 39.7093 359.06 40.2853 359.06 41.096V42.824C359.06 43.592 358.89 44.1467 358.548 44.488C358.207 44.8293 357.61 45 356.756 45H330.196Z"/>
</svg>