<svg width="429" height="90" viewBox="0 0 429 90" fill="none" xmlns="http://www.w3.org/2000/svg">
<g clip-path="url(#clip0_14_6)">
<path opacity="0.3" d="M49.826 11.5402C52.4684 8.90026 52.4684 4.62003 49.826 1.98005C47.1836 -0.659935 42.8994 -0.659935 40.257 1.98005L1.98243 40.2201C-0.659996 42.8601 -0.659996 47.1403 1.98243 49.7795L21.1197 68.8992C23.7621 71.5391 28.0456 71.5399 30.688 68.8999L64.1792 35.4396L73.7482 44.9998L40.257 78.4601C37.6146 81.0993 37.6146 85.3796 40.257 88.0203C42.8994 90.6595 47.1836 90.6595 49.826 88.0203L88.1006 49.7795C90.743 47.1403 90.743 42.8601 88.1006 40.2201L68.9633 21.0997C66.3209 18.4605 62.0375 18.4605 59.395 21.0997L25.9039 54.56L16.3348 44.9998L49.826 11.5402Z" fill="white"/>
<path d="M49.826 78.4598C52.4684 81.0998 52.4684 85.38 49.826 88.02C47.1836 90.66 42.8994 90.66 40.257 88.02C37.6146 85.38 37.6146 81.0998 40.257 78.4598C42.8994 75.8198 47.1836 75.8198 49.826 78.4598ZM30.6883 59.34C33.3307 61.98 33.3307 66.2602 30.6883 68.9002C28.0459 71.5402 23.7617 71.5402 21.1193 68.9002C18.4768 66.2602 18.4768 61.98 21.1193 59.34C23.7617 56.7 28.0459 56.7 30.6883 59.34ZM68.9635 59.34C71.6059 61.98 71.6059 66.2602 68.9635 68.8995C66.321 71.5402 62.0369 71.5402 59.3944 68.9002C56.752 66.2602 56.752 61.98 59.3944 59.34C62.0369 56.7 66.321 56.7 68.9635 59.34ZM11.5508 40.2203C14.1933 42.8603 14.1933 47.1405 11.5508 49.7798C8.90841 52.4205 4.62424 52.4205 1.98182 49.7798C-0.660606 47.1405 -0.660606 42.8603 1.98182 40.2203C4.62424 37.5796 8.90841 37.5796 11.5508 40.2203ZM49.826 40.2203C52.4684 42.8603 52.4684 47.1405 49.826 49.7798C47.1836 52.4205 42.8994 52.4205 40.257 49.7798C37.6146 47.1405 37.6146 42.8603 40.257 40.2203C42.8994 37.5796 47.1836 37.5796 49.826 40.2203ZM88.1009 40.2203C90.7433 42.8603 90.7433 47.1405 88.1009 49.7798C85.4585 52.4205 81.1743 52.4205 78.5319 49.7798C75.8895 47.1405 75.8895 42.8603 78.5319 40.2203C81.1743 37.5796 85.4585 37.5796 88.1009 40.2203ZM30.6883 21.0998C33.3307 23.7405 33.3307 28.0207 30.6883 30.66C28.0459 33.3 23.7617 33.3 21.1193 30.66C18.4768 28.0207 18.4768 23.7405 21.1193 21.1005C23.7617 18.4598 28.0459 18.4598 30.6883 21.0998ZM68.9635 21.0998C71.6059 23.7405 71.6059 28.0207 68.9635 30.66C66.321 33.3 62.0369 33.3 59.3944 30.66C56.752 28.0207 56.752 23.7405 59.3944 21.1005C62.0369 18.4598 66.321 18.4598 68.9635 21.0998ZM49.826 1.97999C52.4684 4.62072 52.4684 8.90095 49.826 11.5402C47.1836 14.1802 42.8994 14.1802 40.257 11.5402C37.6146 8.90095 37.6146 4.62072 40.257 1.97999C42.8994 -0.659997 47.1836 -0.659997 49.826 1.97999Z" fill="white"/>
<path d="M167.391 23.1015V48.9703C167.391 55.8286 172.57 61.1227 179.555 61.1227C186.348 61.1227 191.49 55.9383 191.596 49.1841L191.598 48.9703V23.1015H198.704V48.3687C198.704 59.9194 189.792 67.4996 179.194 67.4996C168.702 67.4996 160.452 60.0703 160.288 48.714L160.286 48.3687V23.1015H167.391ZM317.328 22.4999C323.834 22.4999 329.177 24.9372 333.131 28.6719L333.346 28.8768L328.528 33.6897C325.758 30.6816 321.905 28.8768 317.328 28.8768C308.416 28.8768 301.793 36.0961 301.793 44.9997C301.793 53.9034 308.416 61.1227 317.328 61.1227C321.689 61.1227 325.589 59.2786 328.35 56.38L328.528 56.1895L333.225 60.882C329.131 64.9729 323.47 67.4996 317.328 67.4996C303.96 67.4996 294.567 58.3553 294.567 44.9997C294.567 32.6068 304.924 22.4999 317.328 22.4999ZM142.101 41.8714C149.568 41.8714 154.626 47.1655 154.626 54.3847C154.626 60.8164 149.669 66.7764 142.326 66.8962L142.101 66.898H116.329V60.6414H141.378C145.112 60.6414 147.641 58.1146 147.641 54.3847C147.641 50.7159 145.194 48.2112 141.561 48.1301L141.378 48.1281L138.426 48.1275V41.8714H142.101ZM232.304 23.1015C239.771 23.1015 244.829 28.7565 244.829 35.6148C244.829 39.2244 243.143 42.5933 240.614 44.8794C243.263 47.1655 245.07 50.5345 245.07 54.3847C245.07 61.1737 240.231 66.7836 232.774 66.8963L232.545 66.898H206.411V60.6414H231.943C235.676 60.6414 238.205 58.1146 238.205 54.3847C238.205 50.7159 235.758 48.2112 232.125 48.1301L231.943 48.1281H206.411V41.8714H231.581C235.315 41.8714 237.844 39.3447 237.844 35.6148C237.844 31.946 235.397 29.4413 231.764 29.3602L231.581 29.3581H206.289L206.411 23.1015H232.304ZM276.863 41.8714C284.33 41.8714 289.388 47.1655 289.388 54.3847C289.388 60.8164 284.432 66.7764 277.089 66.8962L276.863 66.898H251.091V60.6414H276.141C279.874 60.6414 282.403 58.1146 282.403 54.3847C282.403 50.7159 279.956 48.2112 276.323 48.1301L276.141 48.1281L273.55 48.1275V41.8714H276.863ZM359.84 23.1015L378.628 66.898H371.643L368.993 60.6414L349.82 60.6411L351.622 54.3843L366.344 54.3847L356.709 31.2832L341.896 66.898H334.791L353.578 23.1015H359.84ZM389.467 23.1015L421.02 56.4302V23.1015H428.125V66.898H422.103L390.55 33.5693V66.898H383.445V23.1015H389.467ZM150.892 23.1015V29.3581H128.853C125.12 29.3581 122.591 31.8848 122.591 35.6148C122.591 39.2836 125.038 41.7883 128.671 41.8694L128.853 41.8714H129.418V48.1275L128.131 48.1281C120.664 48.1281 115.606 42.834 115.606 35.6148C115.606 29.064 120.562 23.2207 127.905 23.1033L128.131 23.1015H150.892ZM285.655 23.1015V29.3581H263.616C259.883 29.3581 257.354 31.8848 257.354 35.6148C257.354 39.2836 259.8 41.7883 263.433 41.8694L263.616 41.8714H264.542V48.1275L262.893 48.1281C255.427 48.1281 250.368 42.834 250.368 35.6148C250.368 29.064 255.325 23.2207 262.668 23.1033L262.893 23.1015H285.655Z" fill="white"/>
</g>
<defs>
<clipPath id="clip0_14_6">
<rect width="429" height="90" fill="white"/>
</clipPath>
</defs>
</svg>
