<svg width="36" height="36" viewBox="0 0 36 36" fill="none" xmlns="http://www.w3.org/2000/svg">
<mask id="mask0_226_1759" style="mask-type:luminance" maskUnits="userSpaceOnUse" x="3" y="3" width="30" height="30">
<path d="M3 3H33V33H3V3Z" fill="white" style="fill:white;fill-opacity:1;"/>
</mask>
<g mask="url(#mask0_226_1759)">
<path d="M31.2519 9.81299C30.8005 9.45672 30.2621 8.97033 29.2803 8.84919C28.3596 8.72713 27.4218 9.34454 26.7873 9.75196C26.1538 10.1603 24.9549 11.3583 24.4604 11.7235C23.965 12.0888 22.697 12.4271 20.6554 13.652C18.6148 14.877 10.6073 20.0182 10.6073 20.0182L12.691 20.0451L3.39848 24.8291H4.32639L2.98926 25.845C2.98926 25.845 4.17024 26.1582 5.16096 25.5327V25.8199C5.16096 25.8199 16.2258 21.4585 18.3617 22.5883L17.0596 22.9706C17.1717 22.9706 19.2743 23.1097 19.2743 23.1097C19.3252 23.5449 19.4714 23.9636 19.7025 24.3359C19.9336 24.7082 20.244 25.0249 20.6115 25.2635C21.8794 26.0972 21.9055 26.5575 21.9055 26.5575C21.9055 26.5575 21.2459 26.8267 21.2459 27.1651C21.2459 27.1651 22.2187 26.8699 23.1214 26.8958C23.6946 26.9176 24.2632 27.008 24.8148 27.1651C24.8148 27.1651 24.7457 26.8008 23.869 26.5575C22.9913 26.3143 22.1227 25.3586 21.6973 24.8381C21.4366 24.5064 21.2667 24.1126 21.2042 23.6953C21.1417 23.2781 21.1889 22.8517 21.341 22.4582C21.6452 21.6685 22.7051 21.2332 24.8939 20.1043C27.4729 18.7672 28.0635 17.7765 28.4287 17.0038C28.793 16.2303 29.3314 14.693 29.6357 13.9724C30.018 13.0436 30.4864 12.5482 30.8777 12.253C31.268 11.9569 33.0054 11.3062 33.0054 11.3062C33.0054 11.3062 31.6772 10.1513 31.251 9.81209L31.2519 9.81299Z" fill="white" style="fill:white;fill-opacity:1;"/>
</g>
</svg>
