<svg width="36" height="36" viewBox="0 0 36 36" fill="none" xmlns="http://www.w3.org/2000/svg">
<path d="M17.9988 9.98772C20.8448 9.98772 23.152 8.64733 23.152 6.99386C23.152 5.3404 20.8448 4 17.9988 4C15.1527 4 12.8455 5.3404 12.8455 6.99386C12.8455 8.64733 15.1527 9.98772 17.9988 9.98772Z" fill="#E6007A" style="fill:#E6007A;fill:color(display-p3 0.9020 0.0000 0.4784);fill-opacity:1;"/>
<path d="M17.9988 32.5459C20.8448 32.5459 23.152 31.2055 23.152 29.5521C23.152 27.8986 20.8448 26.5582 17.9988 26.5582C15.1527 26.5582 12.8455 27.8986 12.8455 29.5521C12.8455 31.2055 15.1527 32.5459 17.9988 32.5459Z" fill="#E6007A" style="fill:#E6007A;fill:color(display-p3 0.9020 0.0000 0.4784);fill-opacity:1;"/>
<path d="M10.8187 14.1319C12.2418 11.6699 12.2326 9.00344 10.7982 8.17615C9.36369 7.34886 7.04725 8.67407 5.62421 11.136C4.20117 13.5981 4.21042 16.2646 5.64485 17.0919C7.07928 17.9192 9.3957 16.5939 10.8187 14.1319Z" fill="#E6007A" style="fill:#E6007A;fill:color(display-p3 0.9020 0.0000 0.4784);fill-opacity:1;"/>
<path d="M30.3709 25.4097C31.7939 22.9477 31.7855 20.2817 30.3521 19.4549C28.9186 18.6282 26.6029 19.9538 25.1798 22.4158C23.7568 24.8778 23.7652 27.5439 25.1987 28.3706C26.6322 29.1974 28.9478 27.8717 30.3709 25.4097Z" fill="#E6007A" style="fill:#E6007A;fill:color(display-p3 0.9020 0.0000 0.4784);fill-opacity:1;"/>
<path d="M10.7982 28.3699C12.2326 27.5426 12.2418 24.8761 10.8187 22.4141C9.3957 19.9521 7.07928 18.6268 5.64485 19.4542C4.21042 20.2814 4.20117 22.948 5.62421 25.41C7.04725 27.872 9.36369 29.1971 10.7982 28.3699Z" fill="#E6007A" style="fill:#E6007A;fill:color(display-p3 0.9020 0.0000 0.4784);fill-opacity:1;"/>
<path d="M30.3557 17.0925C31.7892 16.2657 31.7976 13.5997 30.3746 11.1377C28.9515 8.67567 26.6358 7.35001 25.2024 8.17675C23.769 9.00347 23.7605 11.6696 25.1835 14.1316C26.6066 16.5936 28.9222 17.9192 30.3557 17.0925Z" fill="#E6007A" style="fill:#E6007A;fill:color(display-p3 0.9020 0.0000 0.4784);fill-opacity:1;"/>
</svg>
