<svg width="434" height="90" viewBox="0 0 434 90" fill="none" xmlns="http://www.w3.org/2000/svg">
<g clip-path="url(#clip0_15_11)">
<path d="M44.85 0.190002C69.3991 0.190002 89.3 20.0909 89.3 44.64C89.3 69.1891 69.3991 89.09 44.85 89.09C20.301 89.09 0.400024 69.1891 0.400024 44.64C0.400024 20.0909 20.301 0.190002 44.85 0.190002ZM30.98 53.96C26.8545 53.96 23.51 57.3044 23.51 61.43C23.51 65.5556 26.8545 68.9 30.98 68.9C35.1056 68.9 38.45 65.5556 38.45 61.43C38.45 57.3044 35.1056 53.96 30.98 53.96ZM48.31 37.17C44.18 37.17 26.97 44.64 26.97 44.64C26.97 44.64 44.19 52.11 48.31 52.11C52.44 52.11 55.78 48.76 55.78 44.64C55.78 40.51 52.44 37.17 48.31 37.17ZM58.71 20.38C54.59 20.38 30.44 27.85 30.44 27.85C30.44 27.85 54.59 35.32 58.71 35.32C62.84 35.32 66.18 31.97 66.18 27.85C66.18 23.72 62.84 20.38 58.71 20.38Z" fill="#1f2937"/>
<path d="M120.1 63V36.65H128.75V28H102.5V36.65H111.15V63H120.1ZM145.5 63.75C149.567 63.75 152.883 62.6333 155.45 60.4C158.05 58.1667 159.35 55.2 159.35 51.5V28H150.4V50.65C150.4 53.5833 148.767 55.05 145.5 55.05C142.233 55.05 140.6 53.5833 140.6 50.65V28H131.65V51.5C131.65 55.2 132.942 58.1667 135.525 60.4C138.108 62.6333 141.433 63.75 145.5 63.75ZM173.45 63V51.7H176.65L182.75 63H192.35L185.15 50.05C186.983 49.0167 188.433 47.625 189.5 45.875C190.567 44.125 191.1 42.2 191.1 40.1C191.1 36.6 189.892 33.7083 187.475 31.425C185.058 29.1417 182.067 28 178.5 28H164.5V63H173.45ZM178.4 44.1H173.45V36.25H178.4C179.5 36.25 180.4 36.6167 181.1 37.35C181.8 38.0833 182.15 39.0333 182.15 40.2C182.15 41.3667 181.8 42.3167 181.1 43.05C180.4 43.7833 179.5 44.1333 178.4 44.1ZM210.25 63C213.817 63 216.667 62.0667 218.8 60.2C220.933 58.3333 222 55.85 222 52.75C222 49.25 220.533 46.6333 217.6 44.9C219.767 43.2 220.85 40.8833 220.85 37.95C220.85 34.8833 219.8 32.4583 217.7 30.675C215.6 28.8917 212.8 28 209.3 28H195.5V63H210.25ZM209.05 41.5H204.45V36H209.05C209.883 36 210.567 36.25 211.1 36.75C211.633 37.25 211.9 37.9167 211.9 38.75C211.9 39.6167 211.625 40.2917 211.075 40.775C210.525 41.2583 209.85 41.5 209.05 41.5ZM210 55H204.45V49.1H210C210.9 49.1 211.633 49.3667 212.2 49.9C212.767 50.4333 213.05 51.15 213.05 52.05C213.05 52.9167 212.767 53.625 212.2 54.175C211.633 54.725 210.9 55 210 55ZM242.6 63.75C247.733 63.75 252.067 62 255.6 58.5C259.167 54.9667 260.95 50.6333 260.95 45.5C260.95 40.3667 259.175 36.0417 255.625 32.525C252.075 29.0083 247.733 27.25 242.6 27.25C237.467 27.25 233.125 29.0083 229.575 32.525C226.025 36.0417 224.25 40.3667 224.25 45.5C224.25 50.6333 226.025 54.9583 229.575 58.475C233.125 61.9917 237.467 63.75 242.6 63.75ZM242.6 55C239.9 55 237.65 54.1167 235.85 52.35C234.05 50.55 233.15 48.2667 233.15 45.5C233.15 42.7333 234.05 40.4583 235.85 38.675C237.65 36.8917 239.9 36 242.6 36C245.3 36 247.55 36.8917 249.35 38.675C251.15 40.4583 252.05 42.7333 252.05 45.5C252.05 48.2667 251.15 50.5417 249.35 52.325C247.55 54.1083 245.3 55 242.6 55ZM274.05 63V51H286.35V42.35H274.05V36.65H286.6V28H265.1V63H274.05ZM312 63V54.35H299.95V28H291V63H312ZM322.95 63L324.45 57.95H336.1L337.6 63H347.25L335.7 28H324.8L313.25 63H322.95ZM333.8 50.25H326.75L330.25 38.35L333.8 50.25ZM358.75 63V47.35L368.8 63H378.8L367.2 45L378.3 28H368.3L358.75 42.7V28H349.8V63H358.75ZM403.85 63V54.6H390.3V49.45H402.35V41.2H390.3V36.35H403.6V28H381.35V63H403.85ZM420.55 63.75C424.55 63.75 427.767 62.7833 430.2 60.85C432.633 58.9167 433.85 56.2333 433.85 52.8C433.85 51.0667 433.55 49.5583 432.95 48.275C432.35 46.9917 431.433 45.9417 430.2 45.125C428.967 44.3083 427.833 43.6833 426.8 43.25C425.767 42.8167 424.4 42.35 422.7 41.85C420.333 41.15 418.742 40.5333 417.925 40C417.108 39.4667 416.7 38.8167 416.7 38.05C416.7 37.3833 416.975 36.8333 417.525 36.4C418.075 35.9667 418.883 35.75 419.95 35.75C422.483 35.75 424.3 37.05 425.4 39.65L432.9 35.25C431.7 32.65 429.967 30.6667 427.7 29.3C425.433 27.9333 422.833 27.25 419.9 27.25C416.433 27.25 413.542 28.25 411.225 30.25C408.908 32.25 407.75 34.8667 407.75 38.1C407.75 41.1 408.683 43.4417 410.55 45.125C412.417 46.8083 414.95 48.1167 418.15 49.05C420.417 49.6833 421.883 50.1333 422.55 50.4C424.117 51.0333 424.9 51.8667 424.9 52.9C424.9 54.4667 423.533 55.25 420.8 55.25C417.5 55.25 415.2 53.7 413.9 50.6L406.25 55.05C407.217 57.7167 408.917 59.8333 411.35 61.4C413.783 62.9667 416.85 63.75 420.55 63.75Z" fill="#1f2937"/>
</g>
<defs>
<clipPath id="clip0_15_11">
<rect width="434" height="90" fill="#1f2937"/>
</clipPath>
</defs>
</svg>
