<svg width="36" height="36" viewBox="0 0 36 36" fill="none" xmlns="http://www.w3.org/2000/svg">
<mask id="mask0_826_153" style="mask-type:luminance" maskUnits="userSpaceOnUse" x="3" y="3" width="30" height="30">
<path d="M3 3H33V33H3V3Z" fill="white" style="fill:white;fill-opacity:1;"/>
</mask>
<g mask="url(#mask0_826_153)">
<path d="M31.2517 9.81299C30.8003 9.45672 30.2618 8.97033 29.2801 8.84919C28.3594 8.72713 27.4216 9.34454 26.7871 9.75196C26.1535 10.1603 24.9547 11.3583 24.4601 11.7235C23.9648 12.0888 22.6968 12.4271 20.6552 13.652C18.6145 14.877 10.6071 20.0182 10.6071 20.0182L12.6908 20.0451L3.39823 24.8291H4.32614L2.98901 25.845C2.98901 25.845 4.16999 26.1582 5.16071 25.5327V25.8199C5.16071 25.8199 16.2256 21.4585 18.3614 22.5883L17.0593 22.9706C17.1714 22.9706 19.2741 23.1097 19.2741 23.1097C19.325 23.5449 19.4711 23.9636 19.7022 24.3359C19.9333 24.7082 20.2437 25.0249 20.6112 25.2635C21.8792 26.0972 21.9053 26.5575 21.9053 26.5575C21.9053 26.5575 21.2456 26.8267 21.2456 27.1651C21.2456 27.1651 22.2185 26.8699 23.1212 26.8958C23.6944 26.9176 24.263 27.008 24.8146 27.1651C24.8146 27.1651 24.7455 26.8008 23.8688 26.5575C22.9911 26.3143 22.1225 25.3586 21.697 24.8381C21.4363 24.5064 21.2664 24.1126 21.2039 23.6953C21.1415 23.2781 21.1886 22.8517 21.3408 22.4582C21.645 21.6685 22.7048 21.2332 24.8936 20.1043C27.4727 18.7672 28.0632 17.7765 28.4285 17.0038C28.7928 16.2303 29.3312 14.693 29.6354 13.9724C30.0177 13.0436 30.4862 12.5482 30.8774 12.253C31.2678 11.9569 33.0052 11.3062 33.0052 11.3062C33.0052 11.3062 31.677 10.1513 31.2507 9.81209L31.2517 9.81299Z" fill="black" style="fill:black;fill-opacity:1;"/>
</g>
</svg>
